<svg width="38" height="50" viewBox="0 0 38 50" fill="none" xmlns="http://www.w3.org/2000/svg">
<g clip-path="url(#clip0_62_4260)">
<path d="M16.8229 49C2.63333 28.4208 0 26.3104 0 18.75C0 8.39375 8.39375 0 18.75 0C29.1062 0 37.5 8.39375 37.5 18.75C37.5 26.3104 34.8667 28.4167 20.6771 48.9917C20.4616 49.302 20.1743 49.5557 19.8397 49.7312C19.5051 49.9067 19.1331 49.9987 18.7553 49.9995C18.3775 50.0004 18.0051 49.9099 17.6697 49.7359C17.3344 49.5619 17.046 49.3094 16.8292 49L16.825 48.9917L16.8229 49ZM18.75 26.5625C20.822 26.5625 22.8091 25.7394 24.2743 24.2743C25.7394 22.8091 26.5625 20.822 26.5625 18.75C26.5625 16.678 25.7394 14.6909 24.2743 13.2257C22.8091 11.7606 20.822 10.9375 18.75 10.9375C16.678 10.9375 14.6909 11.7606 13.2257 13.2257C11.7606 14.6909 10.9375 16.678 10.9375 18.75C10.9375 20.822 11.7606 22.8091 13.2257 24.2743C14.6909 25.7394 16.678 26.5625 18.75 26.5625Z" fill="#028B7B"/>
</g>
<defs>
<clipPath id="clip0_62_4260">
<rect width="37.5" height="50" fill="white"/>
</clipPath>
</defs>
</svg>
