<svg width="244" height="237" viewBox="0 0 244 237" fill="none" xmlns="http://www.w3.org/2000/svg">
  <path d="M20.75 236.5C15.125 236.5 10.346 234.533 6.413 230.6C2.48 226.667 0.509 221.884 0.5 216.25V190.6L54.5 142.675V236.5H20.75ZM68 236.5V182.5H176V236.5H68ZM189.5 236.5V125.8L131.788 74.4999L172.625 38.3874L236.75 95.4249C239 97.4499 240.688 99.7584 241.812 102.35C242.938 104.942 243.5 107.696 243.5 110.612V216.25C243.5 221.875 241.533 226.658 237.6 230.6C233.667 234.542 228.884 236.509 223.25 236.5H189.5ZM0.5 172.375V110.612C0.5 107.687 1.0625 104.875 2.1875 102.175C3.3125 99.4749 5 97.2249 7.25 95.4249L108.5 5.6499C110.3 3.8499 112.384 2.5584 114.751 1.7754C117.118 0.9924 119.534 0.596402 122 0.587402C124.475 0.587402 126.896 0.9834 129.263 1.7754C131.63 2.5674 133.709 3.8589 135.5 5.6499L162.5 29.6124L0.5 172.375Z" fill="white" />
</svg>