<svg width="37" height="36" viewBox="0 0 37 36" fill="none" xmlns="http://www.w3.org/2000/svg">
<path d="M3.1875 35.875C2.33681 35.875 1.61406 35.5776 1.01925 34.9828C0.424444 34.388 0.126361 33.6646 0.125 32.8125V28.9334L8.29167 21.6854V35.875H3.1875ZM10.3333 35.875V27.7084H26.6667V35.875H10.3333ZM28.7083 35.875V19.1334L19.9802 11.375L26.1563 5.91357L35.8542 14.5396C36.1944 14.8459 36.4497 15.195 36.6198 15.587C36.7899 15.979 36.875 16.3955 36.875 16.8365V32.8125C36.875 33.6632 36.5776 34.3867 35.9828 34.9828C35.388 35.579 34.6646 35.8764 33.8125 35.875H28.7083ZM0.125 26.1771V16.8365C0.125 16.3941 0.210069 15.9688 0.380208 15.5604C0.550347 15.1521 0.805556 14.8118 1.14583 14.5396L16.4583 0.962524C16.7306 0.690302 17.0457 0.494982 17.4036 0.376566C17.7616 0.258149 18.1271 0.198261 18.5 0.196899C18.8743 0.196899 19.2404 0.256788 19.5984 0.376566C19.9564 0.496343 20.2708 0.691663 20.5417 0.962524L24.625 4.58648L0.125 26.1771Z" fill="#010C17"/>
</svg>
