<svg width="24" height="24" viewBox="0 0 24 24" fill="none" xmlns="http://www.w3.org/2000/svg">
<path d="M16.7989 5.0228e-06C18.2004 -0.000331466 19.5716 0.408408 20.7442 1.17608C21.9167 1.94375 22.8397 3.03697 23.3999 4.32163C23.9601 5.60629 24.1331 7.02651 23.8977 8.40808C23.6624 9.78964 23.0288 11.0725 22.0748 12.0992L21.8468 12.3319L11.3753 22.8029L11.3117 22.8629L11.2445 22.9169C10.3915 23.6523 9.29206 24.0381 8.16656 23.997C7.04106 23.956 5.97264 23.4912 5.17543 22.6957C4.37822 21.9002 3.91111 20.8328 3.86771 19.7074C3.82432 18.5821 4.20785 17.4819 4.94144 16.6274L5.12022 16.4306L5.13822 16.4174L13.8855 7.65377C14.1103 7.42848 14.4155 7.30172 14.7338 7.30138C15.0521 7.30104 15.3575 7.42715 15.5828 7.65197C15.8081 7.87679 15.9348 8.18191 15.9352 8.50019C15.9355 8.81847 15.8094 9.12385 15.5846 9.34914L6.83728 18.1128L6.82288 18.1224C6.46983 18.4994 6.27089 18.995 6.26529 19.5114C6.2597 20.0279 6.44787 20.5277 6.79268 20.9122C7.13748 21.2968 7.61389 21.5382 8.12792 21.5888C8.64196 21.6394 9.15629 21.4955 9.56946 21.1855L9.71584 21.0656L9.71704 21.0668L20.1586 10.6282L20.3494 10.4302C21.1894 9.50687 21.6367 8.29259 21.5963 7.04498C21.5558 5.79737 21.0309 4.6146 20.1328 3.74761C19.2347 2.88062 18.0341 2.39763 16.7858 2.40112C15.5374 2.40461 14.3396 2.8943 13.4463 3.7663L13.2604 3.95827L13.2388 3.97267L2.04847 15.1672C1.93699 15.2786 1.80466 15.3669 1.65903 15.4272C1.5134 15.4874 1.35733 15.5184 1.19972 15.5184C1.04211 15.5183 0.886064 15.4872 0.740477 15.4268C0.59489 15.3665 0.462619 15.278 0.351214 15.1666C0.23981 15.0551 0.151455 14.9228 0.0911933 14.7771C0.0309318 14.6315 -5.56356e-05 14.4754 7.49856e-08 14.3178C0.000112588 13.9996 0.126664 13.6944 0.351814 13.4694L11.5217 2.2953L11.5769 2.2437C12.249 1.53395 13.0589 0.96886 13.957 0.583055C14.8551 0.19725 15.8214 -0.00115099 16.7989 5.0228e-06Z" fill="#676767"/>
</svg>
