<svg width="32" height="32" viewBox="0 0 32 32" fill="none" xmlns="http://www.w3.org/2000/svg">
<g clip-path="url(#clip0_62_4298)">
<path d="M24.0788 7.61994L10.9182 15.7256C10.1735 16.1853 9.82103 17.0934 10.061 17.9333L11.484 22.9333C11.6055 23.3596 11.9849 23.6429 12.4214 23.6429C12.4457 23.6429 12.4703 23.6421 12.4949 23.6403C12.9615 23.6064 13.3308 23.2588 13.3928 22.7956L13.7628 20.0539C13.8127 19.6851 13.9905 19.3419 14.2629 19.0883L25.1232 8.99307C25.4514 8.68875 25.4948 8.19044 25.2243 7.834C24.9535 7.47725 24.4613 7.385 24.0788 7.61994ZM13.3945 18.1549C12.9065 18.6091 12.5886 19.2229 12.4993 19.8833L12.3199 21.2132L11.287 17.5837C11.203 17.2897 11.3267 16.9718 11.5873 16.8109L21.2284 10.8729L13.3945 18.1549Z" fill="#010C17"/>
<path d="M31.4794 2.33639C31.0682 1.98789 30.5008 1.89195 29.9983 2.08607L0.942517 13.2949C0.36708 13.5169 -0.00292014 14.0587 1.73635e-05 14.6753C0.00301736 15.2924 0.378455 15.8312 0.957267 16.0481L7.74414 18.5811L10.3916 27.0952C10.537 27.5633 10.9039 27.9269 11.373 28.0681C11.8419 28.2091 12.3483 28.1083 12.7268 27.7987L16.673 24.5816C16.8625 24.4271 17.1331 24.4195 17.331 24.5632L24.4487 29.7308C24.7048 29.9169 25.007 30.0127 25.3126 30.0127C25.4917 30.0127 25.672 29.9798 25.845 29.9129C26.3128 29.732 26.6531 29.3309 26.755 28.8403L31.9693 3.75845C32.0788 3.23032 31.8911 2.68545 31.4794 2.33639ZM30.721 3.49939L25.5068 28.5811C25.4879 28.6718 25.4226 28.7094 25.3854 28.7239C25.3479 28.7384 25.2738 28.7544 25.1981 28.6993L18.0801 23.5315C17.762 23.3005 17.3878 23.1858 17.0144 23.1858C16.607 23.1858 16.2002 23.3224 15.8677 23.5933L11.9206 26.8111C11.8503 26.8686 11.7774 26.8583 11.7403 26.8471C11.7029 26.8359 11.6362 26.804 11.6091 26.7168L8.86877 17.9039C8.8102 17.7156 8.6677 17.5649 8.48295 17.4959L1.40389 14.8539C1.29789 14.8142 1.27533 14.7315 1.27502 14.6691C1.2747 14.6072 1.29645 14.5249 1.40145 14.4844L30.4573 3.27557C30.4574 3.27551 30.4576 3.27545 30.4578 3.27539C30.5521 3.23895 30.622 3.28082 30.6552 3.30895C30.6886 3.33739 30.7417 3.39989 30.721 3.49939Z" fill="#010C17"/>
<path d="M26.7174 15.7589C26.3732 15.6842 26.0339 15.9026 25.9592 16.2467L25.8623 16.6929C25.7876 17.037 26.006 17.3764 26.35 17.4511C26.3956 17.461 26.4411 17.4657 26.4859 17.4657C26.7794 17.4657 27.0434 17.2619 27.1083 16.9634L27.2052 16.5172C27.2798 16.1731 27.0614 15.8337 26.7174 15.7589Z" fill="#010C17"/>
<path d="M26.0799 18.6952C25.7354 18.6205 25.3963 18.8389 25.3216 19.1829L23.8555 25.9361C23.7808 26.2802 23.9992 26.6196 24.3432 26.6943C24.3888 26.7042 24.4342 26.7089 24.479 26.7089C24.7725 26.7089 25.0365 26.5051 25.1014 26.2066L26.5676 19.4534C26.6423 19.1093 26.4239 18.7699 26.0799 18.6952Z" fill="#010C17"/>
</g>
<defs>
<clipPath id="clip0_62_4298">
<rect width="32" height="32" fill="white"/>
</clipPath>
</defs>
</svg>
