<svg width="30" height="29" viewBox="0 0 30 29" fill="none" xmlns="http://www.w3.org/2000/svg">
<g clip-path="url(#clip0_62_4293)">
<path d="M25.2343 4.20734C22.5211 1.49434 18.9135 0 15.0766 0C12.0587 0 9.17026 0.92572 6.72365 2.67738C6.46921 2.85947 6.41057 3.21325 6.59266 3.46769C6.77498 3.72213 7.12876 3.78054 7.38298 3.59845C9.63621 1.98552 12.2966 1.13281 15.0766 1.13281C22.3728 1.13281 28.3088 7.06879 28.3088 14.3653C28.3088 21.6615 22.3728 27.5975 15.0766 27.5975C12.8539 27.5975 10.6557 27.0357 8.71979 25.9728C8.59124 25.9025 8.44057 25.8845 8.29941 25.9226L1.99415 27.6267L3.71329 21.4914C3.75488 21.3431 3.7343 21.1845 3.65642 21.0519C2.47073 19.0315 1.84414 16.7194 1.84414 14.3653C1.84414 11.585 2.69685 8.92466 4.30978 6.67165C4.49187 6.41743 4.43324 6.06364 4.17902 5.88155C3.92458 5.69946 3.5708 5.75787 3.38871 6.01231C1.63705 8.4587 0.711332 11.3472 0.711332 14.3653C0.711332 16.8395 1.3492 19.2713 2.55835 21.4148L0.634336 28.2807C0.579245 28.477 0.634115 28.6876 0.777265 28.8323C0.885237 28.9409 1.0306 29 1.17972 29C1.22906 29 1.27862 28.9936 1.32752 28.9803L8.37729 27.0751C10.4298 28.1586 12.741 28.7303 15.0764 28.7303C18.9135 28.7303 22.5211 27.2362 25.2341 24.5227C27.9473 21.8097 29.4416 18.2022 29.4416 14.365C29.4416 10.5281 27.9475 6.92078 25.2343 4.20734Z" fill="#010C17"/>
<path d="M13.0062 12.6253L13.0436 12.5817C13.5509 12.0122 13.4228 11.3434 13.2259 10.8827C12.935 10.2024 12.1738 8.46334 12.1017 8.29873C11.9893 8.01464 11.6143 7.56462 10.86 7.54891C10.272 7.53696 10.0786 7.55355 10.0335 7.55908C10.0288 7.55953 10.0242 7.56019 10.0197 7.56085C9.933 7.57347 7.89305 7.90357 7.54082 10.9611C7.37886 12.3667 8.02979 14.0411 9.47545 15.9384C11.076 18.0387 12.5473 19.2894 14.7231 20.3988C15.8066 20.9513 17.3892 21.598 18.8625 21.598C18.9103 21.598 18.9581 21.5973 19.0055 21.5958C20.6602 21.5475 21.5439 20.8599 21.9937 20.2915C22.4712 19.6881 22.5709 19.0936 22.5853 18.9905C22.5948 18.925 22.6178 18.7184 22.6324 18.1801C22.6528 17.4258 22.2209 17.0298 21.9426 16.9039C21.7853 16.8258 20.1635 16.0218 19.4986 15.6994C19.0497 15.4815 18.3897 15.3571 17.7956 16.0016C17.7926 16.005 17.7897 16.0083 17.7868 16.0111C17.7065 16.0813 17.6271 16.1859 17.3857 16.509C17.237 16.7079 16.9403 17.1048 16.8142 17.2373C16.5478 17.2561 15.657 16.8639 14.3943 15.8861C13.5985 15.2697 12.7487 14.3102 12.2785 13.4973C12.2739 13.4858 12.271 13.4648 12.2723 13.4541C12.4672 13.2537 12.7845 12.8853 13.0062 12.6253ZM13.7007 16.7818C14.0782 17.074 14.8183 17.6185 15.5338 17.9816C15.8721 18.1531 16.9016 18.6755 17.5363 18.1137C17.7116 17.9586 17.9605 17.6318 18.2928 17.1871C18.3886 17.059 18.5063 16.9017 18.5519 16.8473C18.5815 16.8203 18.6061 16.7937 18.6284 16.7694C18.7304 16.6588 18.7769 16.6083 19.0041 16.7185C19.6865 17.0495 21.3888 17.8938 21.4499 17.9239C21.4709 17.9449 21.5036 18.0133 21.4999 18.1493C21.4872 18.6188 21.4689 18.7885 21.4651 18.8204C21.4627 18.8321 21.4638 18.825 21.4625 18.8379C21.4558 18.8764 21.3846 19.256 21.0724 19.6288C20.6321 20.155 19.9256 20.4358 18.9725 20.4634C17.6981 20.5012 16.2385 19.9001 15.2375 19.3897C13.2011 18.3511 11.8836 17.2296 10.3762 15.2516C9.13185 13.6187 8.54044 12.1797 8.66589 11.0905C8.90219 9.03971 10.0261 8.71756 10.1768 8.68349C10.2299 8.68017 10.4096 8.67265 10.8366 8.6815C10.9727 8.68437 11.0393 8.72044 11.0594 8.74234C11.0875 8.80651 11.886 10.6305 12.184 11.3279C12.3329 11.6764 12.2415 11.779 12.1975 11.8284C12.1896 11.8372 12.1827 11.8452 12.1767 11.8518L12.1442 11.8901C11.817 12.2735 11.5866 12.5344 11.4596 12.6647C11.0415 13.0944 11.0811 13.6891 11.2953 14.0599C11.84 15.0038 12.7843 16.072 13.7007 16.7818Z" fill="#010C17"/>
<path d="M5.31939 5.17427C5.45546 5.17427 5.59197 5.12559 5.70039 5.02691C5.93182 4.8165 5.94907 4.4583 5.73866 4.22687C5.52803 3.99544 5.17004 3.9784 4.93839 4.18881L4.93817 4.18903C4.70674 4.39944 4.68993 4.75743 4.90034 4.98908C5.01207 5.11188 5.1654 5.17427 5.31939 5.17427Z" fill="#010C17"/>
<path d="M22.8125 22.1392L22.8122 22.1397C22.6018 22.3711 22.6191 22.7291 22.8505 22.9395C22.9589 23.0382 23.0952 23.0868 23.2313 23.0868C23.3853 23.0868 23.5388 23.0242 23.6506 22.9012C23.8612 22.6698 23.8439 22.3116 23.6125 22.1012C23.3811 21.8908 23.0229 21.9078 22.8125 22.1392Z" fill="#010C17"/>
</g>
<defs>
<clipPath id="clip0_62_4293">
<rect width="29" height="29" fill="white" transform="translate(0.5)"/>
</clipPath>
</defs>
</svg>
